<svg width="1000" height="1000" viewBox="0 0 1000 1000" fill="none" xmlns="http://www.w3.org/2000/svg">
<circle cx="500" cy="500" r="500" fill="white"/>
<path fill-rule="evenodd" clip-rule="evenodd" d="M303.204 244.957C360.105 171.106 437.356 206.038 441.663 237.549C442.572 216.249 446.488 206.767 458.757 193.676C476.816 233.356 471.158 249.926 464.083 270.647L464.082 270.65C463.64 271.944 463.193 273.254 462.746 274.586C442.394 311.586 448.048 345.793 453.059 356.067C512.583 444.655 503.287 494.114 492.945 523.586C484.398 549.796 460.402 577.823 446.222 574.867C426.49 565.181 433.44 544.979 446.792 516.748C457.048 495.096 439.554 463.653 427.419 454.641L421.721 460.339C442.233 480.396 442.423 502.124 439.954 510.481C439.457 511.539 438.825 512.801 438.105 514.239C431.436 527.556 417.241 555.901 433.116 576.007C449.356 596.574 469.773 577.526 477.56 565.751C494.882 598.115 499.212 652.169 499.212 675.151C498.342 753.138 457.353 805.231 431.945 805.064H415.991C414.851 751.503 364.361 750.934 341.95 759.48C357.573 685.865 354.077 677.187 349.764 666.48C349.629 666.144 349.493 665.806 349.357 665.465L341.95 669.453C348.331 676.746 343.089 710.478 339.67 726.432C329.984 762.329 334.785 770.373 340.81 768.027C394.798 750.989 408.379 787.484 408.046 806.203L324.856 807.343C294.087 809.622 272.597 772.621 273.005 717.885C269.468 626.4 300.824 565.71 315.169 556.064C339.328 578.856 359.423 578.096 366.451 574.867C382.298 566.615 377.522 547.345 372.718 539.54C350.715 507.787 364.226 466.03 376.707 457.49L373.858 449.513C367.02 451.336 361.512 461.668 359.613 466.607C347.647 496.236 352.206 517.888 365.311 545.238C375.795 567.118 359.803 569.169 350.496 567.46C335.872 562.712 304.229 543.757 294.657 505.922C285.084 468.088 316.119 417.225 332.833 396.522C357.339 367.588 359.011 344.496 357.904 338.403C371.123 345.241 404.247 342.012 418.872 338.403L416.592 329.856C404.007 335.326 387.552 336.142 367.59 333.845C280.549 313.453 288.21 264.649 303.204 244.957ZM357.058 249.515C358.198 249.515 363.602 250.396 363.602 256.353C363.602 263.76 358.198 263.76 357.058 263.76C355.918 263.76 350.496 263.19 349.927 256.923C349.308 250.113 355.918 249.515 357.058 249.515ZM662.174 253.504C598.927 190.827 514.027 200.513 476.991 219.317C476.915 220.765 477.105 223.268 477.35 226.509C478.274 238.712 479.99 261.367 471.293 277.436C457.89 302.198 452.262 334.685 461.607 354.358C484.968 387.406 500.352 427.291 506.62 448.943C514.893 484.137 507.626 506.364 501.633 524.693C500.995 526.644 500.371 528.551 499.783 530.424C596.42 622.958 545.366 666.225 507.76 676.291C506.81 693.385 501.834 734.068 489.526 760.051C528.728 756.86 532.071 786.071 528.842 801.076C569.411 806.09 601.586 800.506 612.602 797.087C715.229 763.672 729.467 668.056 721.432 631.847C710.229 585.966 666.932 561.565 640.999 546.95L640.993 546.946C639.231 545.953 637.549 545.005 635.963 544.099C627.986 539.541 594.358 513.661 578.414 493.387C528.272 426.152 583.1 363.712 614.311 364.614C657.046 365.184 660.654 389.875 657.616 405.639C686.675 395.953 743.482 334.08 662.174 253.504ZM486.108 768.026C478.358 786.26 461.607 800.315 454.199 805.063L519.156 805.063C526.714 766.037 499.267 767.185 486.108 768.026Z" fill="#6A5FB6"/>
</svg>
